<?xml version="1.0" encoding="UTF-8" standalone="no"?>
<!-- Created with Inkscape (http://www.inkscape.org/) -->

<svg
   width="392.31967mm"
   height="137.59862mm"
   viewBox="0 0 392.31967 137.59862"
   version="1.1"
   id="svg1"
   xmlns="http://www.w3.org/2000/svg"
   xmlns:svg="http://www.w3.org/2000/svg">
  <defs
     id="defs1" />
  <g
     id="layer1"
     transform="translate(284.03138,-323.13174)">
    <g
       id="g2"
       transform="translate(-11.892499,-77.841809)">
      <path
         d="m -170.36794,470.76501 v -52.25259 h -20.60666 v -12.14321 h 56.11634 v 12.14321 h -20.60666 v 52.25259 z m 43.51316,0 v -64.3958 h 14.90303 v 64.3958 z m 30.173958,0 v -64.3958 h 12.327197 l 27.414213,45.44504 h -6.531574 l 26.954243,-45.44504 h 12.235202 l 0.183988,64.3958 h -13.983089 l -0.09199,-42.96119 h 2.575833 L -57.1234,463.95746 h -6.715562 l -21.986567,-36.15364 h 3.127796 v 42.96119 z M 4.8805406,432.31152 H 35.88252 v 11.59125 H 4.8805406 Z m 1.103928,26.49427 H 41.034184 v 11.95922 H -8.8265659 v -64.3958 H 39.838262 v 11.95922 H 5.9844686 Z"
         id="text4"
         style="font-weight:bold;font-size:91.994px;font-family:Montserrat;-inkscape-font-specification:'Montserrat Bold';text-align:center;text-anchor:middle;fill:#ffffff;stroke-width:1.07805"
         transform="scale(1.0134564,0.98672228)"
         aria-label="TIME&#10;" />
      <path
         d="m -268.5255,545.8194 v -64.39581 h 14.90303 v 52.2526 h 32.2899 v 12.14321 z m 55.56439,0 v -64.39581 h 14.90303 v 64.39581 z m 30.17396,0 v -64.39581 h 12.32719 l 27.41422,45.44504 h -6.53158 l 26.95424,-45.44504 h 12.23521 l 0.18399,64.39581 h -13.98309 l -0.092,-42.9612 h 2.57583 l -21.52659,36.15364 h -6.71556 l -21.98657,-36.15364 h 3.1278 v 42.9612 z m 87.85426,0 v -64.39581 h 14.903029 v 64.39581 z m 43.513081,0 v -52.2526 h -20.606657 v -12.14321 h 56.116342 v 12.14321 h -20.606657 v 52.2526 z M 5.8004769,507.3659 H 36.802456 v 11.59125 H 5.8004769 Z m 1.103928,26.49428 H 41.95412 V 545.8194 H -7.9066296 V 481.42359 H 40.758198 v 11.95923 H 6.9044049 Z M 53.821306,545.8194 v -64.39581 h 29.254093 q 10.487317,0 18.490791,4.04774 8.00348,3.95574 12.51119,11.13128 4.5077,7.17553 4.5077,17.01889 0,9.75136 -4.5077,17.01889 -4.50771,7.17553 -12.51119,11.22326 -8.003474,3.95575 -18.490791,3.95575 z m 14.903029,-12.23521 h 13.615112 q 6.43958,0 11.131275,-2.39184 4.783688,-2.48384 7.359518,-6.99154 2.66783,-4.50771 2.66783,-10.57931 0,-6.1636 -2.66783,-10.57931 -2.57583,-4.50771 -7.359518,-6.89955 -4.691695,-2.48384 -11.131275,-2.48384 H 68.724335 Z"
         id="text7"
         style="font-weight:bold;font-size:91.994px;font-family:Montserrat;-inkscape-font-specification:'Montserrat Bold';text-align:center;text-anchor:middle;fill:#ffffff;stroke-width:1.07805"
         transform="scale(1.0134564,0.98672228)"
         aria-label="LIMITED&#10;" />
    </g>
  </g>
</svg>
