<?xml version="1.0" encoding="UTF-8" standalone="no"?>
<!-- Created with Inkscape (http://www.inkscape.org/) -->

<svg
   width="507.89227mm"
   height="76.62307mm"
   viewBox="0 0 507.89227 76.62307"
   version="1.1"
   id="svg1"
   xmlns:inkscape="http://www.inkscape.org/namespaces/inkscape"
   xmlns:sodipodi="http://sodipodi.sourceforge.net/DTD/sodipodi-0.dtd"
   xmlns="http://www.w3.org/2000/svg"
   xmlns:svg="http://www.w3.org/2000/svg">
  <sodipodi:namedview
     id="namedview1"
     pagecolor="#ffffff"
     bordercolor="#000000"
     borderopacity="0.25"
     inkscape:showpageshadow="2"
     inkscape:pageopacity="0.0"
     inkscape:pagecheckerboard="0"
     inkscape:deskcolor="#d1d1d1"
     inkscape:document-units="mm" />
  <defs
     id="defs1" />
  <g
     inkscape:label="Layer 1"
     inkscape:groupmode="layer"
     id="layer1"
     transform="translate(154.41701,-313.0021)">
    <path
       d="m -154.41701,388.35519 v -11.11246 l 45.82569,-55.24483 2.11666,6.24415 h -47.09568 v -13.96996 h 62.335635 v 11.11247 l -45.719855,55.24483 -2.11666,-6.24415 h 49.42401 v 13.96995 z m 111.018773,1.27 q -8.784139,0 -16.298282,-2.85749 -7.40831,-2.85749 -12.911626,-8.04331 -5.397483,-5.18582 -8.46664,-12.17079 -2.963324,-6.98498 -2.963324,-15.23996 0,-8.25497 2.963324,-15.23995 3.069157,-6.98498 8.572473,-12.17079 5.503316,-5.18582 12.911626,-8.04331 7.40831,-2.85749 16.086616,-2.85749 8.784139,0 16.086616,2.85749 7.40831,2.85749 12.805793,8.04331 5.5033159,5.18581 8.5724729,12.17079 3.069157,6.87915 3.069157,15.23995 0,8.25498 -3.069157,15.34579 -3.069157,6.98498 -8.5724729,12.17079 -5.397483,5.07999 -12.805793,7.93748 -7.302477,2.85749 -15.980783,2.85749 z m -0.105833,-14.60495 q 4.974151,0 9.101638,-1.69333 4.23332,-1.69333 7.40831,-4.86832 3.17499,-3.17499 4.868318,-7.51414 1.799161,-4.33916 1.799161,-9.63081 0,-5.29165 -1.799161,-9.6308 -1.693328,-4.33915 -4.868318,-7.51414 -3.069157,-3.17499 -7.302477,-4.86832 -4.23332,-1.69333 -9.207471,-1.69333 -4.974151,0 -9.207471,1.69333 -4.127487,1.69333 -7.302477,4.86832 -3.17499,3.17499 -4.974151,7.51414 -1.693328,4.33915 -1.693328,9.6308 0,5.18582 1.693328,9.63081 1.799161,4.33915 4.868318,7.51414 3.17499,3.17499 7.40831,4.86832 4.23332,1.69333 9.207471,1.69333 z m 53.445649,13.33495 v -74.0831 H 24.123201 L 55.661435,366.5536 H 48.147292 L 79.156361,314.27209 H 93.23215 l 0.211666,74.0831 H 77.3572 l -0.105833,-49.42401 h 2.963324 L 55.449769,380.52355 H 47.72396 L 22.429873,338.93118 h 3.598322 v 49.42401 z m 101.070531,0 v -74.0831 h 36.19488 q 13.96996,0 20.95494,5.29165 7.09081,5.29165 7.09081,13.96996 0,5.82082 -2.85749,10.15997 -2.8575,4.23332 -7.83165,6.56164 -4.97415,2.32833 -11.42996,2.32833 l 2.01083,-4.33915 q 6.98497,0 12.38246,2.32832 5.39748,2.2225 8.3608,6.66748 3.06916,4.44499 3.06916,10.9008 0,9.52497 -7.51414,14.92245 -7.51414,5.29165 -22.1191,5.29165 z m 17.03911,-12.91162 h 20.00244 q 6.66747,0 10.05413,-2.11666 3.49249,-2.22249 3.49249,-6.98498 0,-4.65665 -3.49249,-6.87914 -3.38666,-2.32833 -10.05413,-2.32833 h -21.27244 v -12.48829 h 18.30911 q 6.24415,0 9.52497,-2.11666 3.38666,-2.2225 3.38666,-6.66748 0,-4.33916 -3.38666,-6.45582 -3.28082,-2.22249 -9.52497,-2.22249 h -17.03911 z m 63.92304,12.91162 v -74.0831 h 17.14495 v 74.0831 z M 242.45652,344.117 h 35.66572 v 13.33496 h -35.66572 z m 1.26999,30.4799 h 40.32237 v 13.75829 H 226.6874 v -74.0831 h 55.98566 v 13.75829 h -38.94655 z m 78.31636,15.02829 q -8.88997,0 -17.03911,-2.32833 -8.14914,-2.43415 -13.12329,-6.24414 l 5.82081,-12.91163 q 4.76249,3.38666 11.2183,5.60915 6.56165,2.11666 13.22913,2.11666 5.07998,0 8.14914,-0.9525 3.17499,-1.05833 4.65665,-2.85749 1.48166,-1.79916 1.48166,-4.12748 0,-2.96333 -2.32832,-4.65666 -2.32833,-1.79916 -6.13832,-2.85749 -3.80999,-1.16416 -8.46664,-2.11666 -4.55082,-1.05833 -9.20747,-2.53999 -4.55082,-1.48166 -8.36081,-3.80999 -3.80998,-2.32832 -6.24414,-6.13831 -2.32833,-3.80999 -2.32833,-9.73664 0,-6.34998 3.38666,-11.5358 3.49249,-5.29165 10.37163,-8.3608 6.98498,-3.17499 17.46245,-3.17499 6.98497,0 13.75829,1.69333 6.77331,1.58749 11.95912,4.86831 l -5.29165,13.01746 q -5.18581,-2.96332 -10.37163,-4.33915 -5.18582,-1.48166 -10.15997,-1.48166 -4.97415,0 -8.14914,1.16416 -3.17499,1.16416 -4.55082,3.06916 -1.37583,1.79916 -1.37583,4.23332 0,2.85749 2.32833,4.65665 2.32833,1.69333 6.13831,2.75166 3.80999,1.05833 8.36081,2.11666 4.65665,1.05833 9.20747,2.43416 4.65665,1.37583 8.46664,3.70415 3.80999,2.32833 6.13832,6.13832 2.43415,3.80998 2.43415,9.6308 0,6.24415 -3.49248,11.42996 -3.49249,5.18582 -10.47747,8.36081 -6.87915,3.17499 -17.46245,3.17499 z"
       id="text1"
       style="font-weight:bold;font-size:105.833px;font-family:Montserrat;-inkscape-font-specification:'Montserrat Bold';text-align:center;text-anchor:middle;fill:#ffffff;stroke-width:0.264583"
       aria-label="ZOMBIES"
       inkscape:export-filename="zombies.svg"
       inkscape:export-xdpi="96"
       inkscape:export-ydpi="96" />
  </g>
</svg>
